<svg xmlns="http://www.w3.org/2000/svg" xmlns:svg="http://www.w3.org/2000/svg" id="svg3891" width="2048" height="2048" version="1.1"><metadata id="metadata3896"/><path id="rect4338-7-82-22" d="m 73.000002,661 0,1022 438.000008,0 0,-1022 -438.000008,0 z" style="fill:#fff;fill-opacity:1;stroke:#282828;stroke-width:146;stroke-miterlimit:4;stroke-dasharray:none;stroke-opacity:1"/><path id="path4363-4-2-8-5-8-0-8-1-5-5" d="m 438,369 c 1168,0 1168,0 1168,0" style="fill:none;fill-rule:evenodd;stroke:#282828;stroke-width:146;stroke-linecap:butt;stroke-linejoin:miter;stroke-miterlimit:4;stroke-dasharray:none;stroke-dashoffset:0;stroke-opacity:1"/><path id="rect4338-7-82-22-9" d="m 802.99999,660.99999 0,730.00001 438.00001,0 0,-730.00001 -438,0 z" style="fill:#fff;fill-opacity:1;stroke:#282828;stroke-width:146;stroke-miterlimit:4;stroke-dasharray:none;stroke-opacity:1"/><path id="rect4338-7-82-22-3" d="m 1533,661 0,1022 438,0 0,-1022 -438,0 z" style="fill:#fff;fill-opacity:1;stroke:#282828;stroke-width:146;stroke-miterlimit:4;stroke-dasharray:none;stroke-opacity:1"/><path id="path4363-4-2-8-5-8-0-8-1-5-5-1" d="m 511,442 c 0,146 0,146 0,146" style="fill:none;fill-rule:evenodd;stroke:#282828;stroke-width:146;stroke-linecap:butt;stroke-linejoin:miter;stroke-miterlimit:4;stroke-dasharray:none;stroke-dashoffset:0;stroke-opacity:1"/><path id="path4363-4-2-8-5-8-0-8-1-5-5-1-9" d="m 1022,442 c 0,146 0,146 0,146" style="fill:none;fill-rule:evenodd;stroke:#282828;stroke-width:146;stroke-linecap:butt;stroke-linejoin:miter;stroke-miterlimit:4;stroke-dasharray:none;stroke-dashoffset:0;stroke-opacity:1"/><path id="path4363-4-2-8-5-8-0-8-1-5-5-1-4" d="m 1533,442 c 0,146 0,146 0,146" style="fill:none;fill-rule:evenodd;stroke:#282828;stroke-width:146;stroke-linecap:butt;stroke-linejoin:miter;stroke-miterlimit:4;stroke-dasharray:none;stroke-dashoffset:0;stroke-opacity:1"/></svg>