<svg xmlns="http://www.w3.org/2000/svg" xmlns:svg="http://www.w3.org/2000/svg" id="svg3891" width="2048" height="2048" version="1.1"><metadata id="metadata3896"/><path id="rect4338-7-82-22" d="M 438 296 L 438 442 L 438 588 L 0 588 L 0 661 L 0 1756 L 584 1756 L 584 588 L 584 442 L 949 442 L 949 588 L 730 588 L 730 661 L 730 1464 L 1314 1464 L 1314 588 L 1095 588 L 1095 442 L 1460 442 L 1460 588 L 1460 661 L 1460 1756 L 2044 1756 L 2044 588 L 1606 588 L 1606 442 L 1606 296 L 438 296 z M 146 734 L 438 734 L 438 1610 L 146 1610 L 146 734 z M 876 734 L 1168 734 L 1168 1318 L 876 1318 L 876 734 z M 1606 734 L 1898 734 L 1898 1610 L 1606 1610 L 1606 734 z" style="color:#000;font-style:normal;font-variant:normal;font-weight:400;font-stretch:normal;font-size:medium;line-height:normal;font-family:sans-serif;text-indent:0;text-align:start;text-decoration:none;text-decoration-line:none;text-decoration-style:solid;text-decoration-color:#000;letter-spacing:normal;word-spacing:normal;text-transform:none;direction:ltr;block-progression:tb;writing-mode:lr-tb;baseline-shift:baseline;text-anchor:start;white-space:normal;clip-rule:nonzero;display:inline;overflow:visible;visibility:visible;opacity:1;isolation:auto;mix-blend-mode:normal;color-interpolation:sRGB;color-interpolation-filters:linearRGB;solid-color:#000;solid-opacity:1;fill:#282828;fill-opacity:1;fill-rule:nonzero;stroke:none;stroke-width:146;stroke-linecap:butt;stroke-linejoin:miter;stroke-miterlimit:4;stroke-dasharray:none;stroke-dashoffset:0;stroke-opacity:1;color-rendering:auto;image-rendering:auto;shape-rendering:auto;text-rendering:auto;enable-background:accumulate"/></svg>